{
 "cells": [
  {
   "cell_type": "markdown",
   "id": "8faf2299-aa5f-486a-99d2-43fee9a10003",
   "metadata": {},
   "source": [
    "This notebook transforms the labelled side and bottom camera DLC datasets to a merged dataset"
   ]
  },
  {
   "cell_type": "code",
   "execution_count": 16,
   "id": "3c258253-fb88-44e1-b67b-5b93d08cde50",
   "metadata": {},
   "outputs": [
    {
     "data": {
      "text/plain": [
       "[array(['Pole_side', 'Lickport_side', 'PawL_side', 'PawR_side',\n",
       "        'NoseTip_side', 'Jaw_side', 'TongueTip_side', 'TongueMid_side'],\n",
       "       dtype='<U16'),\n",
       " array(['Pole_bottom', 'LickPort_bottom', 'PawL_bottom', 'PawR_bottom',\n",
       "        'NoseTip_bottom', 'Jaw_bottom', 'TongueTip_bottom',\n",
       "        'TongueMid_bottom'], dtype='<U16')]"
      ]
     },
     "execution_count": 16,
     "metadata": {},
     "output_type": "execute_result"
    }
   ],
   "source": []
  },
  {
   "cell_type": "code",
   "execution_count": null,
   "id": "5636a546-b21f-48e2-a867-9c7d250084f3",
   "metadata": {},
   "outputs": [
    {
     "name": "stdout",
     "output_type": "stream",
     "text": [
      "trial_00037__2022-04-10_10-56-46 already done\n",
      "trial_00029__2022-04-10_10-55-08 already done\n",
      "trial_00034__2022-04-10_10-56-05 already done\n",
      "trial_00040__2022-04-10_10-57-18 already done\n",
      "trial_00050__2022-04-10_10-59-06 already done\n",
      "trial_00054__2022-04-10_10-59-59 already done\n",
      "trial_00070__2022-04-10_11-02-50 already done\n",
      "trial_00028__2022-04-15_14-44-06 already done\n",
      "could not open img0355.png.. skipping\n"
     ]
    },
    {
     "name": "stderr",
     "output_type": "stream",
     "text": [
      "ffmpeg version 4.1.11-0+deb10u1 Copyright (c) 2000-2023 the FFmpeg developers\n",
      "  built with gcc 8 (Debian 8.3.0-6)\n",
      "  configuration: --prefix=/usr --extra-version=0+deb10u1 --toolchain=hardened --libdir=/usr/lib/x86_64-linux-gnu --incdir=/usr/include/x86_64-linux-gnu --arch=amd64 --enable-gpl --disable-stripping --enable-avresample --disable-filter=resample --enable-avisynth --enable-gnutls --enable-ladspa --enable-libaom --enable-libass --enable-libbluray --enable-libbs2b --enable-libcaca --enable-libcdio --enable-libcodec2 --enable-libflite --enable-libfontconfig --enable-libfreetype --enable-libfribidi --enable-libgme --enable-libgsm --enable-libjack --enable-libmp3lame --enable-libmysofa --enable-libopenjpeg --enable-libopenmpt --enable-libopus --enable-libpulse --enable-librsvg --enable-librubberband --enable-libshine --enable-libsnappy --enable-libsoxr --enable-libspeex --enable-libssh --enable-libtheora --enable-libtwolame --enable-libvidstab --enable-libvorbis --enable-libvpx --enable-libwavpack --enable-libwebp --enable-libx265 --enable-libxml2 --enable-libxvid --enable-libzmq --enable-libzvbi --enable-lv2 --enable-omx --enable-openal --enable-opengl --enable-sdl2 --enable-libdc1394 --enable-libdrm --enable-libiec61883 --enable-chromaprint --enable-frei0r --enable-libx264 --enable-shared\n",
      "  libavutil      56. 22.100 / 56. 22.100\n",
      "  libavcodec     58. 35.100 / 58. 35.100\n",
      "  libavformat    58. 20.100 / 58. 20.100\n",
      "  libavdevice    58.  5.100 / 58.  5.100\n",
      "  libavfilter     7. 40.101 /  7. 40.101\n",
      "  libavresample   4.  0.  0 /  4.  0.  0\n",
      "  libswscale      5.  3.100 /  5.  3.100\n",
      "  libswresample   3.  3.100 /  3.  3.100\n",
      "  libpostproc    55.  3.100 / 55.  3.100\n",
      "Input #0, mov,mp4,m4a,3gp,3g2,mj2, from '/home/jupyter/bucket/Data/Behavior_videos/DLC_models/BCI_side_2022_08_12/videos/BCI26_trial_00031__2022-04-15_14-44-37.mp4':\n",
      "  Metadata:\n",
      "    major_brand     : isom\n",
      "    minor_version   : 512\n",
      "    compatible_brands: isomiso2avc1mp41\n",
      "    encoder         : Lavf58.29.100\n",
      "  Duration: 00:03:22.36, start: 0.000000, bitrate: 2012 kb/s\n",
      "    Stream #0:0(und): Video: h264 (Main) (avc1 / 0x31637661), yuv420p, 900x500 [SAR 1:1 DAR 9:5], 2011 kb/s, 25 fps, 25 tbr, 12800 tbn, 50 tbc (default)\n",
      "    Metadata:\n",
      "      handler_name    : VideoHandler\n",
      "Input #1, mov,mp4,m4a,3gp,3g2,mj2, from '/home/jupyter/bucket/Data/Behavior_videos/DLC_models/BCI_bottom_2022_10_06/videos/BCI26_trial_00031__2022-04-15_14-44-37.mp4':\n",
      "  Metadata:\n",
      "    major_brand     : isom\n",
      "    minor_version   : 512\n",
      "    compatible_brands: isomiso2avc1mp41\n",
      "    encoder         : Lavf58.29.100\n",
      "  Duration: 00:03:22.36, start: 0.000000, bitrate: 2010 kb/s\n",
      "    Stream #1:0(und): Video: h264 (Main) (avc1 / 0x31637661), yuv420p, 900x500 [SAR 1:1 DAR 9:5], 2010 kb/s, 25 fps, 25 tbr, 12800 tbn, 50 tbc (default)\n",
      "    Metadata:\n",
      "      handler_name    : VideoHandler\n",
      "Stream mapping:\n",
      "  Stream #0:0 (h264) -> vstack:input0\n",
      "  Stream #1:0 (h264) -> vstack:input1\n",
      "  vstack -> Stream #0:0 (libx264)\n",
      "Press [q] to stop, [?] for help\n",
      "[libx264 @ 0x55d3cf090a40] using SAR=1/1\n",
      "[libx264 @ 0x55d3cf090a40] using cpu capabilities: MMX2 SSE2Fast SSSE3 SSE4.2 AVX FMA3 BMI2 AVX2 AVX512\n",
      "[libx264 @ 0x55d3cf090a40] profile High, level 3.1\n",
      "[libx264 @ 0x55d3cf090a40] 264 - core 155 r2917 0a84d98 - H.264/MPEG-4 AVC codec - Copyleft 2003-2018 - http://www.videolan.org/x264.html - options: cabac=1 ref=3 deblock=1:0:0 analyse=0x3:0x113 me=hex subme=7 psy=1 psy_rd=1.00:0.00 mixed_ref=1 me_range=16 chroma_me=1 trellis=1 8x8dct=1 cqm=0 deadzone=21,11 fast_pskip=1 chroma_qp_offset=-2 threads=24 lookahead_threads=4 sliced_threads=0 nr=0 decimate=1 interlaced=0 bluray_compat=0 constrained_intra=0 bframes=3 b_pyramid=2 b_adapt=1 b_bias=0 direct=1 weightb=1 open_gop=0 weightp=2 keyint=250 keyint_min=25 scenecut=40 intra_refresh=0 rc_lookahead=40 rc=crf mbtree=1 crf=23.0 qcomp=0.60 qpmin=0 qpmax=69 qpstep=4 ip_ratio=1.40 aq=1:1.00\n",
      "Output #0, mp4, to '/home/jupyter/bucket/Data/Behavior_videos/DLC_models/BCI_side&bottom_2022/videos/BCI26_trial_00031__2022-04-15_14-44-37.mp4':\n",
      "  Metadata:\n",
      "    major_brand     : isom\n",
      "    minor_version   : 512\n",
      "    compatible_brands: isomiso2avc1mp41\n",
      "    encoder         : Lavf58.20.100\n",
      "    Stream #0:0: Video: h264 (libx264) (avc1 / 0x31637661), yuv420p, 900x1000 [SAR 1:1 DAR 9:10], q=-1--1, 25 fps, 12800 tbn, 25 tbc (default)\n",
      "    Metadata:\n",
      "      encoder         : Lavc58.35.100 libx264\n",
      "    Side data:\n",
      "      cpb: bitrate max/min/avg: 0/0/0 buffer size: 0 vbv_delay: -1\n",
      "frame= 5059 fps=175 q=-1.0 Lsize=   20666kB time=00:03:22.24 bitrate= 837.1kbits/s speed=   7x    \n",
      "video:20606kB audio:0kB subtitle:0kB other streams:0kB global headers:0kB muxing overhead: 0.292843%\n",
      "[libx264 @ 0x55d3cf090a40] frame I:21    Avg QP:19.43  size: 83295\n",
      "[libx264 @ 0x55d3cf090a40] frame P:1275  Avg QP:21.19  size:  9863\n",
      "[libx264 @ 0x55d3cf090a40] frame B:3763  Avg QP:23.81  size:  1801\n",
      "[libx264 @ 0x55d3cf090a40] consecutive B-frames:  0.8%  0.0%  0.0% 99.2%\n",
      "[libx264 @ 0x55d3cf090a40] mb I  I16..4: 25.1% 13.4% 61.5%\n",
      "[libx264 @ 0x55d3cf090a40] mb P  I16..4:  0.7%  0.8%  0.2%  P16..4: 36.4% 11.0%  8.0%  0.0%  0.0%    skip:42.9%\n",
      "[libx264 @ 0x55d3cf090a40] mb B  I16..4:  0.1%  0.0%  0.0%  B16..8: 34.0%  0.7%  0.1%  direct: 0.2%  skip:64.9%  L0:39.9% L1:59.4% BI: 0.6%\n",
      "[libx264 @ 0x55d3cf090a40] 8x8 transform intra:29.7% inter:73.7%\n",
      "[libx264 @ 0x55d3cf090a40] coded y,uvDC,uvAC intra: 73.7% 0.0% 0.0% inter: 7.6% 0.0% 0.0%\n",
      "[libx264 @ 0x55d3cf090a40] i16 v,h,dc,p: 24% 17% 38% 21%\n",
      "[libx264 @ 0x55d3cf090a40] i8 v,h,dc,ddl,ddr,vr,hd,vl,hu: 13% 14% 32%  7%  8%  6%  9%  5%  6%\n",
      "[libx264 @ 0x55d3cf090a40] i4 v,h,dc,ddl,ddr,vr,hd,vl,hu: 14% 21% 20%  7%  9%  7% 10%  6%  8%\n",
      "[libx264 @ 0x55d3cf090a40] i8c dc,h,v,p: 100%  0%  0%  0%\n",
      "[libx264 @ 0x55d3cf090a40] Weighted P-Frames: Y:0.0% UV:0.0%\n",
      "[libx264 @ 0x55d3cf090a40] ref P L0: 63.4% 11.8% 19.2%  5.7%\n",
      "[libx264 @ 0x55d3cf090a40] ref B L0: 89.3%  8.4%  2.3%\n",
      "[libx264 @ 0x55d3cf090a40] ref B L1: 93.8%  6.2%\n",
      "[libx264 @ 0x55d3cf090a40] kb/s:834.13\n",
      "ffmpeg version 4.1.11-0+deb10u1 Copyright (c) 2000-2023 the FFmpeg developers\n",
      "  built with gcc 8 (Debian 8.3.0-6)\n",
      "  configuration: --prefix=/usr --extra-version=0+deb10u1 --toolchain=hardened --libdir=/usr/lib/x86_64-linux-gnu --incdir=/usr/include/x86_64-linux-gnu --arch=amd64 --enable-gpl --disable-stripping --enable-avresample --disable-filter=resample --enable-avisynth --enable-gnutls --enable-ladspa --enable-libaom --enable-libass --enable-libbluray --enable-libbs2b --enable-libcaca --enable-libcdio --enable-libcodec2 --enable-libflite --enable-libfontconfig --enable-libfreetype --enable-libfribidi --enable-libgme --enable-libgsm --enable-libjack --enable-libmp3lame --enable-libmysofa --enable-libopenjpeg --enable-libopenmpt --enable-libopus --enable-libpulse --enable-librsvg --enable-librubberband --enable-libshine --enable-libsnappy --enable-libsoxr --enable-libspeex --enable-libssh --enable-libtheora --enable-libtwolame --enable-libvidstab --enable-libvorbis --enable-libvpx --enable-libwavpack --enable-libwebp --enable-libx265 --enable-libxml2 --enable-libxvid --enable-libzmq --enable-libzvbi --enable-lv2 --enable-omx --enable-openal --enable-opengl --enable-sdl2 --enable-libdc1394 --enable-libdrm --enable-libiec61883 --enable-chromaprint --enable-frei0r --enable-libx264 --enable-shared\n",
      "  libavutil      56. 22.100 / 56. 22.100\n",
      "  libavcodec     58. 35.100 / 58. 35.100\n",
      "  libavformat    58. 20.100 / 58. 20.100\n",
      "  libavdevice    58.  5.100 / 58.  5.100\n",
      "  libavfilter     7. 40.101 /  7. 40.101\n",
      "  libavresample   4.  0.  0 /  4.  0.  0\n",
      "  libswscale      5.  3.100 /  5.  3.100\n",
      "  libswresample   3.  3.100 /  3.  3.100\n",
      "  libpostproc    55.  3.100 / 55.  3.100\n",
      "Input #0, mov,mp4,m4a,3gp,3g2,mj2, from '/home/jupyter/bucket/Data/Behavior_videos/DLC_models/BCI_side_2022_08_12/videos/BCI26_trial_00077__2022-04-15_14-53-23.mp4':\n",
      "  Metadata:\n",
      "    major_brand     : isom\n",
      "    minor_version   : 512\n",
      "    compatible_brands: isomiso2avc1mp41\n",
      "    encoder         : Lavf58.29.100\n",
      "  Duration: 00:03:05.36, start: 0.000000, bitrate: 2012 kb/s\n",
      "    Stream #0:0(und): Video: h264 (Main) (avc1 / 0x31637661), yuv420p, 900x500 [SAR 1:1 DAR 9:5], 2011 kb/s, 25 fps, 25 tbr, 12800 tbn, 50 tbc (default)\n",
      "    Metadata:\n",
      "      handler_name    : VideoHandler\n",
      "Input #1, mov,mp4,m4a,3gp,3g2,mj2, from '/home/jupyter/bucket/Data/Behavior_videos/DLC_models/BCI_bottom_2022_10_06/videos/BCI26_trial_00077__2022-04-15_14-53-23.mp4':\n",
      "  Metadata:\n",
      "    major_brand     : isom\n",
      "    minor_version   : 512\n",
      "    compatible_brands: isomiso2avc1mp41\n",
      "    encoder         : Lavf58.29.100\n",
      "  Duration: 00:03:05.36, start: 0.000000, bitrate: 2003 kb/s\n",
      "    Stream #1:0(und): Video: h264 (Main) (avc1 / 0x31637661), yuv420p, 900x500 [SAR 1:1 DAR 9:5], 2002 kb/s, 25 fps, 25 tbr, 12800 tbn, 50 tbc (default)\n",
      "    Metadata:\n",
      "      handler_name    : VideoHandler\n",
      "Stream mapping:\n",
      "  Stream #0:0 (h264) -> vstack:input0\n",
      "  Stream #1:0 (h264) -> vstack:input1\n",
      "  vstack -> Stream #0:0 (libx264)\n",
      "Press [q] to stop, [?] for help\n",
      "[libx264 @ 0x5573d84cdc40] using SAR=1/1\n",
      "[libx264 @ 0x5573d84cdc40] using cpu capabilities: MMX2 SSE2Fast SSSE3 SSE4.2 AVX FMA3 BMI2 AVX2 AVX512\n",
      "[libx264 @ 0x5573d84cdc40] profile High, level 3.1\n",
      "[libx264 @ 0x5573d84cdc40] 264 - core 155 r2917 0a84d98 - H.264/MPEG-4 AVC codec - Copyleft 2003-2018 - http://www.videolan.org/x264.html - options: cabac=1 ref=3 deblock=1:0:0 analyse=0x3:0x113 me=hex subme=7 psy=1 psy_rd=1.00:0.00 mixed_ref=1 me_range=16 chroma_me=1 trellis=1 8x8dct=1 cqm=0 deadzone=21,11 fast_pskip=1 chroma_qp_offset=-2 threads=24 lookahead_threads=4 sliced_threads=0 nr=0 decimate=1 interlaced=0 bluray_compat=0 constrained_intra=0 bframes=3 b_pyramid=2 b_adapt=1 b_bias=0 direct=1 weightb=1 open_gop=0 weightp=2 keyint=250 keyint_min=25 scenecut=40 intra_refresh=0 rc_lookahead=40 rc=crf mbtree=1 crf=23.0 qcomp=0.60 qpmin=0 qpmax=69 qpstep=4 ip_ratio=1.40 aq=1:1.00\n",
      "Output #0, mp4, to '/home/jupyter/bucket/Data/Behavior_videos/DLC_models/BCI_side&bottom_2022/videos/BCI26_trial_00077__2022-04-15_14-53-23.mp4':\n",
      "  Metadata:\n",
      "    major_brand     : isom\n",
      "    minor_version   : 512\n",
      "    compatible_brands: isomiso2avc1mp41\n",
      "    encoder         : Lavf58.20.100\n",
      "    Stream #0:0: Video: h264 (libx264) (avc1 / 0x31637661), yuv420p, 900x1000 [SAR 1:1 DAR 9:10], q=-1--1, 25 fps, 12800 tbn, 25 tbc (default)\n",
      "    Metadata:\n",
      "      encoder         : Lavc58.35.100 libx264\n",
      "    Side data:\n",
      "      cpb: bitrate max/min/avg: 0/0/0 buffer size: 0 vbv_delay: -1\n",
      "frame= 4634 fps=176 q=-1.0 Lsize=   18458kB time=00:03:05.24 bitrate= 816.3kbits/s speed=7.03x    \n",
      "video:18403kB audio:0kB subtitle:0kB other streams:0kB global headers:0kB muxing overhead: 0.300763%\n",
      "[libx264 @ 0x5573d84cdc40] frame I:19    Avg QP:19.50  size: 83071\n",
      "[libx264 @ 0x5573d84cdc40] frame P:1168  Avg QP:21.18  size:  9416\n",
      "[libx264 @ 0x5573d84cdc40] frame B:3447  Avg QP:23.81  size:  1818\n",
      "[libx264 @ 0x5573d84cdc40] consecutive B-frames:  0.8%  0.0%  0.0% 99.2%\n",
      "[libx264 @ 0x5573d84cdc40] mb I  I16..4: 24.8% 14.3% 60.8%\n",
      "[libx264 @ 0x5573d84cdc40] mb P  I16..4:  0.7%  0.9%  0.2%  P16..4: 36.2% 10.3%  7.8%  0.0%  0.0%    skip:44.1%\n",
      "[libx264 @ 0x5573d84cdc40] mb B  I16..4:  0.1%  0.0%  0.0%  B16..8: 33.3%  0.7%  0.1%  direct: 0.2%  skip:65.5%  L0:40.2% L1:59.1% BI: 0.7%\n",
      "[libx264 @ 0x5573d84cdc40] 8x8 transform intra:31.1% inter:74.2%\n",
      "[libx264 @ 0x5573d84cdc40] coded y,uvDC,uvAC intra: 73.3% 0.0% 0.0% inter: 7.4% 0.0% 0.0%\n",
      "[libx264 @ 0x5573d84cdc40] i16 v,h,dc,p: 24% 17% 37% 22%\n",
      "[libx264 @ 0x5573d84cdc40] i8 v,h,dc,ddl,ddr,vr,hd,vl,hu: 12% 15% 31%  7%  7%  5%  9%  5%  7%\n",
      "[libx264 @ 0x5573d84cdc40] i4 v,h,dc,ddl,ddr,vr,hd,vl,hu: 14% 21% 20%  7%  8%  7%  9%  6%  8%\n",
      "[libx264 @ 0x5573d84cdc40] i8c dc,h,v,p: 100%  0%  0%  0%\n",
      "[libx264 @ 0x5573d84cdc40] Weighted P-Frames: Y:0.0% UV:0.0%\n",
      "[libx264 @ 0x5573d84cdc40] ref P L0: 62.9% 11.0% 19.7%  6.4%\n",
      "[libx264 @ 0x5573d84cdc40] ref B L0: 87.9%  9.3%  2.7%\n",
      "[libx264 @ 0x5573d84cdc40] ref B L1: 93.4%  6.6%\n",
      "[libx264 @ 0x5573d84cdc40] kb/s:813.29\n",
      "ffmpeg version 4.1.11-0+deb10u1 Copyright (c) 2000-2023 the FFmpeg developers\n",
      "  built with gcc 8 (Debian 8.3.0-6)\n",
      "  configuration: --prefix=/usr --extra-version=0+deb10u1 --toolchain=hardened --libdir=/usr/lib/x86_64-linux-gnu --incdir=/usr/include/x86_64-linux-gnu --arch=amd64 --enable-gpl --disable-stripping --enable-avresample --disable-filter=resample --enable-avisynth --enable-gnutls --enable-ladspa --enable-libaom --enable-libass --enable-libbluray --enable-libbs2b --enable-libcaca --enable-libcdio --enable-libcodec2 --enable-libflite --enable-libfontconfig --enable-libfreetype --enable-libfribidi --enable-libgme --enable-libgsm --enable-libjack --enable-libmp3lame --enable-libmysofa --enable-libopenjpeg --enable-libopenmpt --enable-libopus --enable-libpulse --enable-librsvg --enable-librubberband --enable-libshine --enable-libsnappy --enable-libsoxr --enable-libspeex --enable-libssh --enable-libtheora --enable-libtwolame --enable-libvidstab --enable-libvorbis --enable-libvpx --enable-libwavpack --enable-libwebp --enable-libx265 --enable-libxml2 --enable-libxvid --enable-libzmq --enable-libzvbi --enable-lv2 --enable-omx --enable-openal --enable-opengl --enable-sdl2 --enable-libdc1394 --enable-libdrm --enable-libiec61883 --enable-chromaprint --enable-frei0r --enable-libx264 --enable-shared\n",
      "  libavutil      56. 22.100 / 56. 22.100\n",
      "  libavcodec     58. 35.100 / 58. 35.100\n",
      "  libavformat    58. 20.100 / 58. 20.100\n",
      "  libavdevice    58.  5.100 / 58.  5.100\n",
      "  libavfilter     7. 40.101 /  7. 40.101\n",
      "  libavresample   4.  0.  0 /  4.  0.  0\n",
      "  libswscale      5.  3.100 /  5.  3.100\n",
      "  libswresample   3.  3.100 /  3.  3.100\n",
      "  libpostproc    55.  3.100 / 55.  3.100\n",
      "Input #0, mov,mp4,m4a,3gp,3g2,mj2, from '/home/jupyter/bucket/Data/Behavior_videos/DLC_models/BCI_side_2022_08_12/videos/BCI26_trial_00097__2022-04-15_14-57-10.mp4':\n",
      "  Metadata:\n",
      "    major_brand     : isom\n",
      "    minor_version   : 512\n",
      "    compatible_brands: isomiso2avc1mp41\n",
      "    encoder         : Lavf58.29.100\n",
      "  Duration: 00:03:05.36, start: 0.000000, bitrate: 2017 kb/s\n",
      "    Stream #0:0(und): Video: h264 (Main) (avc1 / 0x31637661), yuv420p, 900x500 [SAR 1:1 DAR 9:5], 2016 kb/s, 25 fps, 25 tbr, 12800 tbn, 50 tbc (default)\n",
      "    Metadata:\n",
      "      handler_name    : VideoHandler\n",
      "Input #1, mov,mp4,m4a,3gp,3g2,mj2, from '/home/jupyter/bucket/Data/Behavior_videos/DLC_models/BCI_bottom_2022_10_06/videos/BCI26_trial_00097__2022-04-15_14-57-10.mp4':\n",
      "  Metadata:\n",
      "    major_brand     : isom\n",
      "    minor_version   : 512\n",
      "    compatible_brands: isomiso2avc1mp41\n",
      "    encoder         : Lavf58.29.100\n",
      "  Duration: 00:03:05.36, start: 0.000000, bitrate: 2011 kb/s\n",
      "    Stream #1:0(und): Video: h264 (Main) (avc1 / 0x31637661), yuv420p, 900x500 [SAR 1:1 DAR 9:5], 2010 kb/s, 25 fps, 25 tbr, 12800 tbn, 50 tbc (default)\n",
      "    Metadata:\n",
      "      handler_name    : VideoHandler\n",
      "Stream mapping:\n",
      "  Stream #0:0 (h264) -> vstack:input0\n",
      "  Stream #1:0 (h264) -> vstack:input1\n",
      "  vstack -> Stream #0:0 (libx264)\n",
      "Press [q] to stop, [?] for help\n",
      "[libx264 @ 0x5569ee089500] using SAR=1/1\n",
      "[libx264 @ 0x5569ee089500] using cpu capabilities: MMX2 SSE2Fast SSSE3 SSE4.2 AVX FMA3 BMI2 AVX2 AVX512\n",
      "[libx264 @ 0x5569ee089500] profile High, level 3.1\n",
      "[libx264 @ 0x5569ee089500] 264 - core 155 r2917 0a84d98 - H.264/MPEG-4 AVC codec - Copyleft 2003-2018 - http://www.videolan.org/x264.html - options: cabac=1 ref=3 deblock=1:0:0 analyse=0x3:0x113 me=hex subme=7 psy=1 psy_rd=1.00:0.00 mixed_ref=1 me_range=16 chroma_me=1 trellis=1 8x8dct=1 cqm=0 deadzone=21,11 fast_pskip=1 chroma_qp_offset=-2 threads=24 lookahead_threads=4 sliced_threads=0 nr=0 decimate=1 interlaced=0 bluray_compat=0 constrained_intra=0 bframes=3 b_pyramid=2 b_adapt=1 b_bias=0 direct=1 weightb=1 open_gop=0 weightp=2 keyint=250 keyint_min=25 scenecut=40 intra_refresh=0 rc_lookahead=40 rc=crf mbtree=1 crf=23.0 qcomp=0.60 qpmin=0 qpmax=69 qpstep=4 ip_ratio=1.40 aq=1:1.00\n",
      "Output #0, mp4, to '/home/jupyter/bucket/Data/Behavior_videos/DLC_models/BCI_side&bottom_2022/videos/BCI26_trial_00097__2022-04-15_14-57-10.mp4':\n",
      "  Metadata:\n",
      "    major_brand     : isom\n",
      "    minor_version   : 512\n",
      "    compatible_brands: isomiso2avc1mp41\n",
      "    encoder         : Lavf58.20.100\n",
      "    Stream #0:0: Video: h264 (libx264) (avc1 / 0x31637661), yuv420p, 900x1000 [SAR 1:1 DAR 9:10], q=-1--1, 25 fps, 12800 tbn, 25 tbc (default)\n",
      "    Metadata:\n",
      "      encoder         : Lavc58.35.100 libx264\n",
      "    Side data:\n",
      "      cpb: bitrate max/min/avg: 0/0/0 buffer size: 0 vbv_delay: -1\n"
     ]
    }
   ],
   "source": [
    "import matplotlib.pyplot as plt\n",
    "import pandas as pd\n",
    "import os\n",
    "import png # pip install pypng\n",
    "from PIL import Image\n",
    "from pathlib import Path\n",
    "import numpy as np\n",
    "import json\n",
    "\n",
    "base_bottom = '/home/jupyter/bucket/Data/Behavior_videos/DLC_models/BCI_bottom_2022_10_06'\n",
    "base_side = '/home/jupyter/bucket/Data/Behavior_videos/DLC_models/BCI_side_2022_08_12'\n",
    "metadata_file = '/home/jupyter/bucket/Data/Behavior_videos/DLC_models/Metadata_BCI_DLC_labels.csv'\n",
    "base_merge = '/home/jupyter/bucket/Data/Behavior_videos/DLC_models/BCI_side&bottom_2022'\n",
    "metadata = pd.read_csv(metadata_file)\n",
    "swap_paws_on_side_camera = True\n",
    "plot_fiducials = True\n",
    "overwrite = False\n",
    "\n",
    "class NpEncoder(json.JSONEncoder):\n",
    "    def default(self, obj):\n",
    "        if isinstance(obj, np.integer):\n",
    "            return int(obj)\n",
    "        if isinstance(obj, np.floating):\n",
    "            return float(obj)\n",
    "        if isinstance(obj, np.ndarray):\n",
    "            return obj.tolist()\n",
    "        return super(NpEncoder, self).default(obj)\n",
    "\n",
    "\n",
    "\n",
    "if plot_fiducials == True:\n",
    "    fig = plt.figure(figsize = [15,15])\n",
    "    ax  = fig.add_subplot(1,1,1)\n",
    "for metadata_row in metadata.iterrows():\n",
    "    metadata_row = metadata_row[1]\n",
    "    merge_dir_name = os.path.join(os.path.join(base_merge,'labeled-data',metadata_row['Mouse']+'_'+metadata_row['Trial']))\n",
    "    merge_dir_plot_name = os.path.join(os.path.join(base_merge,'labeled-data-plots',metadata_row['Mouse']+'_'+metadata_row['Trial']))\n",
    "    merge_video_name = os.path.join(os.path.join(base_merge,'videos',metadata_row['Mouse']+'_'+metadata_row['Trial']+'.mp4'))\n",
    "    bottom_video_name = os.path.join(os.path.join(base_bottom,'videos',metadata_row['Mouse']+'_'+metadata_row['Trial']+'.mp4'))\n",
    "    side_video_name = os.path.join(os.path.join(base_side,'videos',metadata_row['Mouse']+'_'+metadata_row['Trial']+'.mp4'))\n",
    "    if os.path.exists(merge_video_name) and not overwrite:\n",
    "        print('{} already done'.format(metadata_row['Trial']))\n",
    "        continue\n",
    "        \n",
    "    \n",
    "    Path(merge_dir_name).mkdir(parents=True, exist_ok=True)                       \n",
    "    if plot_fiducials:\n",
    "        Path(merge_dir_plot_name).mkdir(parents=True, exist_ok=True)                       \n",
    "    if not metadata_row['side view'] == metadata_row['bottom view'] == 'x': \n",
    "        continue \n",
    "    frames_side = os.listdir(os.path.join(base_side,'labeled-data',metadata_row['Trial']))\n",
    "    for frame_name in frames_side:\n",
    "        if '.csv' in frame_name:\n",
    "            csv_side = pd.read_csv(os.path.join(base_side,'labeled-data',metadata_row['Trial'],frame_name),header=[1,2])\n",
    "            \n",
    "            if swap_paws_on_side_camera:\n",
    "                pawlx = csv_side[('PawL','x')].copy()\n",
    "                pawly = csv_side[('PawL','y')].copy()\n",
    "                pawrx = csv_side[('PawR','x')].copy()\n",
    "                pawry = csv_side[('PawR','y')].copy()\n",
    "                csv_side[('PawL','x')] = pawrx\n",
    "                csv_side[('PawL','y')] = pawry\n",
    "                csv_side[('PawR','x')] = pawlx\n",
    "                csv_side[('PawR','y')] = pawly\n",
    "            break\n",
    "    frames_bottom = os.listdir(os.path.join(base_bottom,'labeled-data',metadata_row['Trial']))\n",
    "    csv_out_name = None\n",
    "    for frame_name in frames_bottom:\n",
    "        if '.csv' in frame_name:\n",
    "            csv_bottom = pd.read_csv(os.path.join(base_bottom,'labeled-data',metadata_row['Trial'],frame_name),header=[1,2])\n",
    "            csv_out_name = frame_name\n",
    "            break\n",
    "    side_body_parts = []\n",
    "    bottom_body_parts = []\n",
    "    matched_side = []\n",
    "    matched_bottom = []\n",
    "    for side_body_part in csv_side.keys():\n",
    "        if side_body_part[1] not in ['x']:\n",
    "            continue\n",
    "        side_body_parts.append(side_body_part[0])\n",
    "        for bottom_body_part in csv_bottom.keys():\n",
    "            if bottom_body_part[1] not in ['x']:\n",
    "                continue\n",
    "            if bottom_body_part[0].lower() == side_body_part[0].lower():\n",
    "                bottom_body_parts.append(bottom_body_part[0])\n",
    "                matched_side.append(len(side_body_parts)-1)\n",
    "                matched_bottom.append(len(bottom_body_parts)-1)\n",
    "    for bottom_body_part in csv_bottom.keys():\n",
    "        if bottom_body_part[1] not in ['x']:\n",
    "            continue\n",
    "        if bottom_body_part[0] not in bottom_body_parts:\n",
    "            bottom_body_parts.append(bottom_body_part[0])\n",
    "    \n",
    "    cols_new = []\n",
    "    out_csv_dict = {'file':[]}\n",
    "    for side_body_part in side_body_parts:\n",
    "        cols_new.append((side_body_part+'_side','x'))\n",
    "        cols_new.append((side_body_part+'_side','y'))\n",
    "        out_csv_dict[side_body_part+'_side'] = {'x':[],\n",
    "                                                'y':[]}\n",
    "        # out_csv_dict[(side_body_part+'_side','x')] = []\n",
    "        # out_csv_dict[(side_body_part+'_side','y')] = []\n",
    "        \n",
    "    for bottom_body_part in bottom_body_parts:\n",
    "        cols_new.append((bottom_body_part+'_bottom','x'))\n",
    "        cols_new.append((bottom_body_part+'_bottom','y'))\n",
    "        out_csv_dict[bottom_body_part+'_bottom'] = {'x':[],\n",
    "                                                  'y':[]}\n",
    "#         out_csv_dict[(bottom_body_part+'_bottom','x')] = []\n",
    "#         out_csv_dict[(bottom_body_part+'_bottom','y')] = []\\\n",
    "    \n",
    "        \n",
    "    for frame_name in frames_side:\n",
    "\n",
    "        if '.png' not in frame_name:\n",
    "            continue\n",
    "        try:\n",
    "            bottom_im_name = os.path.join(os.path.join(base_bottom,'labeled-data',metadata_row['Trial'],frame_name))\n",
    "            im_bottom = Image.open(bottom_im_name)\n",
    "            side_im_name = os.path.join(os.path.join(base_side,'labeled-data',metadata_row['Trial'],frame_name))\n",
    "            im_side = Image.open(side_im_name)\n",
    "        except:\n",
    "            print('could not open {}.. skipping'.format(frame_name))\n",
    "            continue\n",
    "        im_merge  =np.concatenate([im_side,im_bottom],0)\n",
    "        im_merge= Image.fromarray(im_merge)\n",
    "        \n",
    "        merge_im_name = os.path.join(merge_dir_name,frame_name)\n",
    "\n",
    "        im_merge.save(merge_im_name,\"PNG\")\n",
    "        \n",
    "        try:\n",
    "            bottom_csv_idx = np.where(csv_bottom[('bodyparts', 'coords')] == 'labeled-data/{}/{}'.format(metadata_row['Trial'],frame_name))[0][0]\n",
    "        except:\n",
    "            bottom_csv_idx = np.where(csv_bottom[('Unnamed: 2_level_0', 'Unnamed: 2_level_1')] == frame_name)[0][0]\n",
    "        try:\n",
    "            side_csv_idx = np.where(csv_side[('bodyparts', 'coords')] == 'labeled-data/{}/{}'.format(metadata_row['Trial'],frame_name))[0][0]\n",
    "        except:\n",
    "            side_csv_idx = np.where(csv_side[('Unnamed: 2_level_0', 'Unnamed: 2_level_1')] == frame_name)[0][0]\n",
    "        if plot_fiducials:\n",
    "            ax.clear()\n",
    "            ax.imshow(im_merge)\n",
    "        \n",
    "        for side_i,side_body_part in enumerate(side_body_parts):\n",
    "            x = csv_side[(side_body_part,'x')][side_csv_idx]\n",
    "            y = csv_side[(side_body_part,'y')][side_csv_idx]\n",
    "            out_csv_dict[side_body_part+'_side']['x'].append(x)\n",
    "            out_csv_dict[side_body_part+'_side']['y'].append(y)\n",
    "            # out_csv_dict[(side_body_part+'_side','x')].append(x)\n",
    "            # out_csv_dict[(side_body_part+'_side','y')].append(y)\n",
    "            # out_csv_dict[side_body_part+'_side'] = {}\n",
    "            # out_csv_dict[side_body_part+'_side']['x'] = x\n",
    "            # out_csv_dict[side_body_part+'_side']['y'] = y\n",
    "            if plot_fiducials:\n",
    "                \n",
    "                ax.plot(x,y,'o')\n",
    "                if side_i in matched_side:\n",
    "                    bottom_i = np.asarray(matched_bottom)[np.asarray(matched_side) == side_i][0]\n",
    "                    bottom_body_part = np.asarray(bottom_body_parts)[bottom_i]\n",
    "                    xx = csv_bottom[(bottom_body_part,'x')][bottom_csv_idx]\n",
    "                    yy = csv_bottom[(bottom_body_part,'y')][bottom_csv_idx]\n",
    "                    yy+=500\n",
    "                    ax.plot([x,xx],[y,yy],'k-')\n",
    "                \n",
    "        for bottom_i,bottom_body_part in enumerate(bottom_body_parts):\n",
    "            x = csv_bottom[(bottom_body_part,'x')][bottom_csv_idx]\n",
    "            y = csv_bottom[(bottom_body_part,'y')][bottom_csv_idx]\n",
    "            y+=500\n",
    "            if plot_fiducials:\n",
    "                ax.plot(x,y,'o')\n",
    "            out_csv_dict[bottom_body_part+'_bottom']['x'].append(x)\n",
    "            out_csv_dict[bottom_body_part+'_bottom']['y'].append(y)\n",
    "            # out_csv_dict[(bottom_body_part+'_bottom','x')].append(x)\n",
    "            # out_csv_dict[(bottom_body_part+'_bottom','y')].append(y)\n",
    "            # out_csv_dict[side_body_part+'_bottom'] = {}\n",
    "            # out_csv_dict[side_body_part+'_bottom']['x'] = x\n",
    "            # out_csv_dict[side_body_part+'_bottom']['y'] = y\n",
    "       # out_csv_dict['file'] = merge_im_name[len(base_merge)+1:]\n",
    "        if plot_fiducials:\n",
    "            fig.savefig(os.path.join(merge_dir_plot_name,frame_name))\n",
    "            \n",
    "        out_csv_dict['file'].append(merge_im_name[len(base_merge)+1:])\n",
    "    df_out = pd.DataFrame(0, index=out_csv_dict['file'], columns=cols_new)#dlc_data.columns)\n",
    "    df_out.columns = pd.MultiIndex.from_tuples(df_out.columns)\n",
    "    for col in cols_new:\n",
    "        df_out[col] = out_csv_dict[col[0]][col[1]]\n",
    "    df_out.to_csv(os.path.join(merge_dir_name,csv_out_name))\n",
    "    metadata_out = {'matching_part_indices':[matched_side,list(np.asarray(matched_bottom)+len(side_body_parts))],\n",
    "                    'matching_part_names':[list(np.asarray(list(out_csv_dict.keys()))[1:][np.asarray(matched_side)]),list(np.asarray(list(out_csv_dict.keys()))[1:][np.asarray(matched_bottom)+len(side_body_parts)])]}\n",
    "    with open(os.path.join(merge_dir_name,'metadata.json'), \"w\") as outfile:\n",
    "        json_object = json.dumps({'matching_part_indices':[matched_side,list(np.asarray(matched_bottom)+len(side_body_parts))],\n",
    "                                 'matching_part_names':[list(np.asarray(list(out_csv_dict.keys()))[1:][np.asarray(matched_side)]),list(np.asarray(list(out_csv_dict.keys()))[1:][np.asarray(matched_bottom)+len(side_body_parts)])]}, \n",
    "                                 indent=4,\n",
    "                                cls=NpEncoder)\n",
    "        outfile.write(json_object)\n",
    "    # with open(os.path.join(merge_dir_name,'metadata.json'), \"w\") as outfile:\n",
    "    #     json.dump(metadata_out, outfile)\n",
    "    \n",
    "    try:\n",
    "        os.system('ffmpeg -y -i \"{}\" -i \"{}\" -filter_complex vstack \"{}\"'.format(side_video_name,bottom_video_name,merge_video_name))\n",
    "    except:\n",
    "        pass\n",
    "            \n",
    "            \n",
    "            \n",
    "        \n",
    "\n",
    "        "
   ]
  }
 ],
 "metadata": {
  "environment": {
   "kernel": "bci_with_suite2p",
   "name": "common-cpu.m92",
   "type": "gcloud",
   "uri": "gcr.io/deeplearning-platform-release/base-cpu:m92"
  },
  "kernelspec": {
   "display_name": "bci_with_suite2p",
   "language": "python",
   "name": "bci_with_suite2p"
  },
  "language_info": {
   "codemirror_mode": {
    "name": "ipython",
    "version": 3
   },
   "file_extension": ".py",
   "mimetype": "text/x-python",
   "name": "python",
   "nbconvert_exporter": "python",
   "pygments_lexer": "ipython3",
   "version": "3.8.13"
  }
 },
 "nbformat": 4,
 "nbformat_minor": 5
}
